<svg width="1251" height="1301" viewBox="0 0 1251 1301" fill="none" xmlns="http://www.w3.org/2000/svg">
<g clip-path="url(#clip0_611_56)">
<path d="M615 1.99997C631.915 1.79997 643.311 2.32097 655 6.99997H658V7.99997H660V8.99997H663V9.99998L667 11V12L671 13L672 15L676 16L677 18L680 19L683 23H685L696 35L713 51V53H714L716 56L742 81L792 132L810 149C817.214 158.979 826.428 166.428 835 175L870 211L908 248V250L915 256L930 272L938 279L980 322C989.211 331.211 999.257 339.291 1007 350L1029 371C1044.67 387 1060.34 403 1076 419C1086.17 429.17 1097.46 438.195 1106 450C1114.67 458.333 1123.34 466.667 1132 475C1146.33 489.667 1160.66 504.333 1175 519C1184.53 528.531 1194.99 536.926 1203 548C1205.33 550 1207.66 552 1210 554C1215.67 560 1221.34 566 1227 572V574L1230 576V578C1230.67 578.333 1231.33 578.667 1232 579C1232.33 580.333 1232.67 581.667 1233 583C1233.67 583.333 1234.33 583.667 1235 584C1235.67 586 1236.33 588 1237 590H1238V592H1239C1239.67 594 1240.33 596 1241 598H1242V601H1243V603H1244L1247 616H1248V621H1249V626H1250V635H1251V1195C1251 1209.12 1251.4 1222.64 1248 1233V1237H1247C1246.33 1240 1245.67 1243 1245 1246H1244C1243.33 1248 1242.67 1250 1242 1252H1241V1254H1240C1239.67 1255.33 1239.33 1256.67 1239 1258C1238.33 1258.33 1237.67 1258.67 1237 1259V1261H1236C1235.67 1262 1235.33 1263 1235 1264C1234.33 1264.33 1233.67 1264.67 1233 1265V1267C1231 1268.67 1229 1270.33 1227 1272V1274H1226C1225.33 1275 1224.67 1276 1224 1277H1222C1220.33 1279 1218.67 1281 1217 1283H1215C1214.33 1284 1213.67 1285 1213 1286H1211V1287H1209C1208.67 1287.67 1208.33 1288.33 1208 1289H1206V1290H1204V1291H1202V1292H1200V1293C1198.67 1293.33 1197.33 1293.67 1196 1294V1295C1174.85 1304.26 1138.63 1301 1109 1301H100C90.072 1301 80.4 1301.24 73 1299H68V1298C65.667 1297.67 63.333 1297.33 61 1297V1296H59V1295H56V1294C54 1293.33 52 1292.67 50 1292V1291H48V1290C46 1289.33 44 1288.67 42 1288C41.667 1287.33 41.333 1286.67 41 1286H39C38.667 1285.33 38.333 1284.67 38 1284C37 1283.67 36 1283.33 35 1283C33.667 1281.33 32.333 1279.67 31 1278H29C28.667 1277.33 28.333 1276.67 28 1276C27 1275.33 26 1274.67 25 1274V1272C23 1270.33 21 1268.67 19 1267V1265C18.333 1264.67 17.667 1264.33 17 1264V1262C16.333 1261.67 15.667 1261.33 15 1261L14 1258H13L12 1254H11V1252H10L8.00001 1246H7.00001V1243H6.00001V1240H5.00001V1237H4.00001V1233H3.00001V1228H2.00001V1222H1.00001V675C1.00001 662.785 -0.88399 644.148 2.00001 634V626H3.00001L4.00001 616H5.00001L6.00001 609H7.00001V606H8.00001V603H9.00001V601H10V598H11L13 592H14V590H15L17 584L19 583L20 579L22 578V576L25 574V572L28 570V568L46 551L48 548H49V546L82 514L120 475C128.892 466.108 138.521 458.343 146 448L178 417L288 305L344 250V248L347 246L352 240L442 151C449.743 140.291 459.789 132.211 469 123L477 114L519 73L567 23H569L572 19H574L575 17H577L578 15L581 14V13L585 12V11L589 9.99998V8.99997H592V7.99997H594V6.99997L615 1.99997ZM301 1001H951V704L713 467L696 449H694L690 444L681 436V434L673 427L670 423C663.936 418.469 658.251 413.452 653 408L637 392C634.389 389.39 633.162 386.134 629 385C626.022 390.248 619.253 394.747 615 399C605.869 408.131 596.542 421.751 583 426L570 425V424L565 423L563 420H561L560 418H559V416L556 414L555 409H554L553 396H554V393H555L556 388L558 387V385L608 336L711 232L746 198L750 193C753.867 189.133 764.589 181.183 766 176C761.885 173.594 759.279 169.279 756 166L754 165L735 145L702 113V111L696 106L684 93L667 77L650 59H648L647 57H645L644 55H642V54L636 53C632.86 51.83 625.576 49.331 620 51L608 55L607 57C592.51 66.542 582.012 79.988 570 92L548 113C540 124.076 529.53 132.47 520 142L477 186L450 212C443.05 221.613 434.253 228.747 426 237L393 271L352 311V313L344 320L328 337L253 411C244.992 422.074 234.531 430.469 225 440L181 485L155 510C148.312 519.247 139.934 526.066 132 534L101 566C81.984 585.016 63.015 598.6 53 627V631C50.727 638.036 51 647.373 51 657V892H52L399 544L458 486L485 458H487L488 456L493 455V454L506 453V454H509V455L514 456L516 459H518L519 461H520V463L522 464V466H523C523.915 467.357 523.725 467.758 524 470C527.179 473.394 525.893 484.816 524 489H523V491C519.631 496.462 513.479 500.522 509 505L504 511L479 535L354 661L301 713V1001ZM1001 1251H1169C1173 1249.67 1177 1248.34 1181 1247V1246C1182 1245.67 1183 1245.33 1184 1245C1184.33 1244.33 1184.67 1243.67 1185 1243H1187C1187.33 1242.33 1187.67 1241.67 1188 1241C1189.67 1239.67 1191.33 1238.33 1193 1237V1235C1193.67 1234.67 1194.33 1234.33 1195 1234V1232H1196C1196.67 1230 1197.33 1228 1198 1226H1199V1223H1200C1202.78 1214.78 1201 1194.59 1201 1184V676C1201 664.381 1202.78 646.578 1200 637V631H1199V627H1198C1197.33 624 1196.67 621 1196 618H1195C1194.33 616 1193.67 614 1193 612H1192C1191.67 610.667 1191.33 609.333 1191 608C1190.33 607.667 1189.67 607.333 1189 607V605C1188.33 604.667 1187.67 604.333 1187 604V602L1181 597C1173.78 587.024 1164.57 579.573 1156 571C1147.33 562 1138.66 553 1130 544C1118.33 532.667 1106.66 521.333 1095 510C1093.33 508 1091.67 506 1090 504C1089.33 503.667 1088.67 503.333 1088 503V501C1074.33 487.667 1060.66 474.333 1047 461C1034.67 448.333 1022.34 435.667 1010 423L991 405V403L984 397L969 381L931 344L921 333C911.789 323.789 901.743 315.709 894 305L871 283L825 236L809 220C806.619 217.619 803.766 216.028 802 213C800.865 213.844 801.855 212.873 801 214C796.882 216.391 794.274 220.726 791 224L770 244V245L718 296L701 314H700L676 339C672.706 342.294 667.379 344.929 666 350C669.029 351.763 670.619 354.62 673 357L690 374L699 382L742 426L808 491L910 594L958 641L973 657C981.6 665.6 992.079 672.779 998 684H999V686H1000V690C1001.15 693.572 1001 698.02 1001 703V1251ZM251 1251V764H250L98 917L51 963V1218C52 1221.33 53 1224.66 54 1228H55L57 1234C57.667 1234.33 58.333 1234.67 59 1235V1237C60.666 1238.33 62.334 1239.67 64 1241C64.333 1241.67 64.667 1242.33 65 1243H67C67.333 1243.67 67.667 1244.33 68 1245H70C70.333 1245.67 70.667 1246.33 71 1247H73V1248C85.258 1253.55 111.754 1251 129 1251H251ZM371 851C377.866 850.889 384.816 851.412 389 854L390 856H392L395 860H396V862L398 863V865H399C402.266 872.266 401 884.854 401 895C401 924.969 404.962 943.519 381 951L368 950V949H365V948H363L362 946H360L357 942H356V940L354 939V937H353V935H352C349.293 928.151 351 907.411 351 898V871H352L353 865H354V863L356 862V860L360 857V856C362.309 854.367 365.118 854.12 367 852H371V851ZM496 851C502.866 850.889 509.816 851.412 514 854L515 856H517L520 860H521V862L523 863V865H524C527.266 872.266 526 884.854 526 895C526 924.969 529.962 943.519 506 951L493 950V949H490V948H488L487 946H485L482 942H481V940L479 939V937H478V935H477C474.293 928.151 476 907.411 476 898V871H477L478 865H479V863L481 862V860L485 857V856C487.309 854.367 490.118 854.12 492 852H496V851ZM621 851C627.866 850.889 634.816 851.412 639 854L640 856H642L645 860H646V862L648 863V865H649C652.266 872.266 651 884.854 651 895C651 924.969 654.962 943.519 631 951L618 950V949H615V948H613L612 946H610L607 942H606V940L604 939V937H603V935H602C599.293 928.151 601 907.411 601 898V871H602L603 865H604V863L606 862V860L610 857V856C612.309 854.367 615.118 854.12 617 852H621V851ZM746 851C752.866 850.889 759.816 851.412 764 854L765 856H767L770 860H771V862L773 863V865H774C777.266 872.266 776 884.854 776 895C776 924.969 779.962 943.519 756 951L743 950V949H740V948H738L737 946H735L732 942H731V940L729 939V937H728V935H727C724.293 928.151 726 907.411 726 898V871H727L728 865H729V863L731 862V860L735 857V856C737.309 854.367 740.118 854.12 742 852H746V851ZM871 851C877.866 850.889 884.816 851.412 889 854L890 856H892L895 860H896V862L898 863V865H899C902.266 872.266 901 884.854 901 895C901 924.969 904.962 943.519 881 951L868 950V949H865V948H863L862 946H860L857 942H856V940L854 939V937H853V935H852C849.293 928.151 851 907.411 851 898V871H852L853 865H854V863L856 862V860L860 857V856C862.309 854.367 865.118 854.12 867 852H871V851ZM301 1051V1251H951V1051H301Z" fill="black"/>
</g>
<defs>
<clipPath id="clip0_611_56">
<rect width="1251" height="1301" fill="white"/>
</clipPath>
</defs>
</svg>
