<svg width="30" height="30" viewBox="0 0 30 30" fill="none" xmlns="http://www.w3.org/2000/svg">
<g filter="url(#filter0_d_613_58)">
<path d="M6.464 16.828C5 15.657 5 14.771 5 11C5 7.229 5 5.343 6.464 4.172C7.93 3 10.286 3 15 3C19.714 3 22.071 3 23.535 4.172C25 5.343 25 7.229 25 11C25 14.771 25 15.657 23.535 16.828C22.072 18 19.714 18 15 18C12.49 18 11.2 19.738 9 21V17.788C7.906 17.625 7.101 17.338 6.464 16.828Z" stroke="black" stroke-width="1.5" stroke-linecap="round" stroke-linejoin="round"/>
</g>
<defs>
<filter id="filter0_d_613_58" x="-1" y="0" width="32" height="32" filterUnits="userSpaceOnUse" color-interpolation-filters="sRGB">
<feFlood flood-opacity="0" result="BackgroundImageFix"/>
<feColorMatrix in="SourceAlpha" type="matrix" values="0 0 0 0 0 0 0 0 0 0 0 0 0 0 0 0 0 0 127 0" result="hardAlpha"/>
<feOffset dy="4"/>
<feGaussianBlur stdDeviation="2"/>
<feComposite in2="hardAlpha" operator="out"/>
<feColorMatrix type="matrix" values="0 0 0 0 0 0 0 0 0 0 0 0 0 0 0 0 0 0 0.25 0"/>
<feBlend mode="normal" in2="BackgroundImageFix" result="effect1_dropShadow_613_58"/>
<feBlend mode="normal" in="SourceGraphic" in2="effect1_dropShadow_613_58" result="shape"/>
</filter>
</defs>
</svg>
